# xmcd
#
# Track frame offsets:
#	150
#	21820
#	44199
#	65418
#	84031
#	104710
#	127436
#	149203
#	170387
#	190564
#
# Disc length: 2733 seconds
#
# Revision: 1
# Processed by: cddbd v1.5.1PL2 Copyright (c) Steve Scherf et al.
# Submitted via: audiograbber 1.83.01
#
DISCID=960aab0a
DTITLE=Alex Bugnoon - Free
DYEAR=2005
DGENRE=Jazz
TTITLE0=Free
TTITLE1=Fingertips
TTITLE2=Carrera
TTITLE3=In Your Eyes
TTITLE4=Sierra Leone
TTITLE5=Downtime
TTITLE6=Tomorrow (Better You, Better Me)
TTITLE7=Pillow Talk
TTITLE8=Don't Go
TTITLE9=Out There
EXTD=YEAR: 2005
EXTT0=
EXTT1=
EXTT2=
EXTT3=
EXTT4=
EXTT5=
EXTT6=
EXTT7=
EXTT8=
EXTT9=
PLAYORDER=
